<svg width="24" height="24" viewBox="0 0 24 24" fill="none" xmlns="http://www.w3.org/2000/svg">
<g clip-path="url(#clip0_14_1057)">
<path d="M4.5 19.5003V22.0003H3C2.73478 22.0003 2.48043 21.8949 2.29289 21.7074C2.10536 21.5199 2 21.2655 2 21.0003V19.5003H4.5ZM6.5 17.5003H0V21.0003C0 21.7959 0.31607 22.559 0.87868 23.1216C1.44129 23.6842 2.20435 24.0003 3 24.0003H6.5V17.5003Z" fill="#374957"/>
<path d="M21.9999 19.5003V21.0003C21.9999 21.2655 21.8945 21.5199 21.707 21.7074C21.5194 21.8949 21.2651 22.0003 20.9999 22.0003H19.4999V19.5003H21.9999ZM23.9999 17.5003H17.4999V24.0003H20.9999C21.7955 24.0003 22.5586 23.6842 23.1212 23.1216C23.6838 22.559 23.9999 21.7959 23.9999 21.0003V17.5003Z" fill="#374957"/>
<path d="M4.5 10.7497V13.2497H2V10.7497H4.5ZM6.5 8.74969H0V15.2497H6.5V8.74969Z" fill="#374957"/>
<path d="M21.9999 10.7497V13.2497H19.4999V10.7497H21.9999ZM23.9999 8.74969H17.4999V15.2497H23.9999V8.74969Z" fill="#374957"/>
<path d="M4.5 2V4.5H2V3C2 2.73478 2.10536 2.48043 2.29289 2.29289C2.48043 2.10536 2.73478 2 3 2H4.5ZM6.5 0H3C2.20435 0 1.44129 0.31607 0.87868 0.87868C0.31607 1.44129 0 2.20435 0 3L0 6.5H6.5V0Z" fill="#374957"/>
<path d="M13.2502 19.5003V22.0003H10.7502V19.5003H13.2502ZM15.2502 17.5003H8.75018V24.0003H15.2502V17.5003Z" fill="#374957"/>
<path d="M13.2502 10.7497V13.2497H10.7502V10.7497H13.2502ZM15.2502 8.74969H8.75018V15.2497H15.2502V8.74969Z" fill="#374957"/>
<path d="M13.2502 2V4.5H10.7502V2H13.2502ZM15.2502 0H8.75018V6.5H15.2502V0Z" fill="#374957"/>
<path d="M20.9999 2C21.2651 2 21.5194 2.10536 21.707 2.29289C21.8945 2.48043 21.9999 2.73478 21.9999 3V4.5H19.4999V2H20.9999ZM20.9999 0H17.4999V6.5H23.9999V3C23.9999 2.20435 23.6838 1.44129 23.1212 0.87868C22.5586 0.31607 21.7955 0 20.9999 0V0Z" fill="#374957"/>
</g>
<defs>
<clipPath id="clip0_14_1057">
<rect width="24" height="24" fill="white"/>
</clipPath>
</defs>
</svg>
