<svg width="48" height="48" viewBox="0 0 48 48" fill="none" xmlns="http://www.w3.org/2000/svg">
<path d="M17.0399 16.0464C17.0538 16.8395 17.1085 17.6289 17.1584 18.42" stroke="#9647FF" stroke-width="3.94849" stroke-miterlimit="1.5" stroke-linecap="round" stroke-linejoin="round"/>
<path d="M13.8196 20.2245C14.3785 20.2093 14.9334 20.1625 15.4909 20.1312" stroke="#9647FF" stroke-width="3.94849" stroke-miterlimit="1.5" stroke-linecap="round" stroke-linejoin="round"/>
<path d="M18.8489 20.213C19.3371 20.121 19.8236 20.0278 20.31 19.9283" stroke="#9647FF" stroke-width="3.94849" stroke-miterlimit="1.5" stroke-linecap="round" stroke-linejoin="round"/>
<path d="M17.4416 21.8723C17.3857 22.6426 17.3271 23.4585 17.4186 24.2309" stroke="#9647FF" stroke-width="3.94849" stroke-miterlimit="1.5" stroke-linecap="round" stroke-linejoin="round"/>
<path d="M21.9134 34.5596C22.3417 34.5186 22.7899 34.5156 23.2137 34.4355" stroke="#9647FF" stroke-width="3.94849" stroke-miterlimit="1.5" stroke-linecap="round" stroke-linejoin="round"/>
<path d="M24.9935 30.0264C24.9366 30.8153 25.0326 31.6002 25.0521 32.3897" stroke="#9647FF" stroke-width="3.94849" stroke-miterlimit="1.5" stroke-linecap="round" stroke-linejoin="round"/>
<path d="M25.0829 36.177C25.0802 36.9475 25.0212 37.8423 25.162 38.6042" stroke="#9647FF" stroke-width="3.94849" stroke-miterlimit="1.5" stroke-linecap="round" stroke-linejoin="round"/>
<path d="M27.4131 34.2954C28.0169 34.2706 28.5966 34.217 29.1936 34.1345" stroke="#9647FF" stroke-width="3.94849" stroke-miterlimit="1.5" stroke-linecap="round" stroke-linejoin="round"/>
<path d="M28.8958 8.68713C28.9459 9.49415 29.0186 10.2973 29.0388 11.1058" stroke="#9647FF" stroke-width="3.94849" stroke-miterlimit="1.5" stroke-linecap="round" stroke-linejoin="round"/>
<path d="M25.3337 13.706C25.9596 13.6134 26.5935 13.5826 27.2167 13.4933" stroke="#9647FF" stroke-width="3.94849" stroke-miterlimit="1.5" stroke-linecap="round" stroke-linejoin="round"/>
<path d="M29.3058 15.1777C29.4478 16.1977 29.4736 17.3561 29.7579 18.3509" stroke="#9647FF" stroke-width="3.94849" stroke-miterlimit="1.5" stroke-linecap="round" stroke-linejoin="round"/>
<path d="M31.6261 13.0495C32.2427 12.9797 32.8601 12.9681 33.4772 12.9144" stroke="#9647FF" stroke-width="3.94849" stroke-miterlimit="1.5" stroke-linecap="round" stroke-linejoin="round"/>
</svg>
