<svg width="45" height="5" viewBox="0 0 45 5" fill="none" xmlns="http://www.w3.org/2000/svg">
<path d="M31.2419 4.3071C26.1835 3.22561 20.5366 3.81244 15.4185 3.91176C13.9468 3.94035 12.4411 4.13097 10.9708 4.04934C10.7791 4.03874 9.94245 3.99897 9.78551 3.78642C9.76502 3.75876 10.4174 3.64969 10.7344 3.60304C11.3506 3.51232 11.9666 3.44539 12.5824 3.34958C14.2013 3.09784 15.8484 2.97502 17.4815 2.86187C21.6735 2.57165 29.1728 1.67726 33.2699 2.93854C33.4729 3.00103 32.8453 2.92779 32.633 2.92199C32.2842 2.91253 31.9355 2.89884 31.5866 2.88788C30.4487 2.85226 29.3012 2.78892 28.1632 2.79888C24.4957 2.83077 20.8152 2.67756 17.1486 2.81478C16.0453 2.85613 14.9455 2.94198 13.8418 2.97516C13.2024 2.99437 13.2311 3.01063 12.5703 2.9882C12.2838 2.97846 11.4894 3.06466 11.716 2.88902C12.115 2.5796 13.3623 2.65699 13.8448 2.59386C16.0474 2.30593 18.2447 1.92993 20.4586 1.72792C26.1353 1.20996 31.9143 1.20874 37.604 1.42544C39.9315 1.51408 42.2831 1.17119 44.6007 1.44823C38.9773 0.721958 33.1321 0.825075 27.4779 0.846072C21.1118 0.86972 14.7528 0.871296 8.38657 1.00544C5.77298 1.06048 3.21211 1.55821 0.590576 1.52188" stroke="#7B61FF" stroke-width="0.589762" stroke-miterlimit="1.5" stroke-linecap="round" stroke-linejoin="round"/>
</svg>
