<svg width="127" height="107" viewBox="0 0 127 107" fill="none" xmlns="http://www.w3.org/2000/svg">
<path d="M81.6849 78.939C70.5547 96.7313 50.0079 97.497 32.2157 86.3667C14.4235 75.2365 6.12341 56.4252 17.2536 38.6329C28.3839 20.8407 49.0801 4.79121 66.8723 15.9214C84.6645 27.0517 92.8151 61.1468 81.6849 78.939Z" fill="#7B61FF" fill-opacity="0.5"/>
<path d="M49.736 56.936C49.1173 56.936 48.5093 56.8613 47.912 56.712C47.3253 56.5627 46.7707 56.3707 46.248 56.136C46.0133 57.096 45.8107 58.1467 45.64 59.288C45.5973 59.608 45.5333 59.9013 45.448 60.168C45.3627 60.424 45.2293 60.632 45.048 60.792C44.8667 60.952 44.6 61.032 44.248 61.032C43.9173 61.032 43.6987 60.904 43.592 60.648C43.4853 60.392 43.432 60.0773 43.432 59.704C43.432 59.5867 43.4747 59.2827 43.56 58.792C43.6453 58.3013 43.752 57.7093 43.88 57.016C44.008 56.312 44.1413 55.5867 44.28 54.84C43.8427 54.4027 43.624 54.0027 43.624 53.64C43.624 53.4587 43.6773 53.288 43.784 53.128C43.9013 52.9573 44.1253 52.872 44.456 52.872C44.4987 52.872 44.5573 52.888 44.632 52.92C44.7387 52.3227 44.8293 51.7893 44.904 51.32C44.9893 50.84 45.0373 50.4933 45.048 50.28C45.0693 49.8747 45.1333 49.576 45.24 49.384C45.3467 49.1813 45.48 49.048 45.64 48.984C45.8107 48.9093 45.9813 48.872 46.152 48.872C46.376 48.872 46.5467 48.92 46.664 49.016C46.7813 49.112 46.84 49.3253 46.84 49.656C46.84 49.976 46.8347 50.2693 46.824 50.536C47.3467 49.64 47.8907 49.0107 48.456 48.648C49.0213 48.2747 49.64 48.088 50.312 48.088C50.9733 48.088 51.5493 48.2693 52.04 48.632C52.5307 48.9947 52.9093 49.5173 53.176 50.2C53.4533 50.872 53.592 51.6827 53.592 52.632C53.592 54.0827 53.256 55.1653 52.584 55.88C51.9227 56.584 50.9733 56.936 49.736 56.936ZM46.792 54.248C47.1867 54.4613 47.608 54.648 48.056 54.808C48.504 54.9573 48.9627 55.032 49.432 55.032C50.1893 55.032 50.744 54.8347 51.096 54.44C51.4587 54.0453 51.64 53.3947 51.64 52.488C51.64 50.8773 51.1547 50.072 50.184 50.072C49.5653 50.072 48.9627 50.4187 48.376 51.112C47.8 51.8053 47.272 52.8507 46.792 54.248ZM56.2479 61.608C55.9065 61.608 55.5972 61.512 55.3199 61.32C55.0425 61.1387 54.8239 60.8987 54.6639 60.6C54.5039 60.2907 54.4239 59.96 54.4239 59.608C54.4239 58.9467 54.5679 58.3013 54.8559 57.672C55.1545 57.0427 55.5439 56.4453 56.0239 55.88C56.5039 55.3147 57.0265 54.7973 57.5919 54.328C58.1679 53.848 58.7385 53.4373 59.3039 53.096C59.8799 52.7547 60.4025 52.488 60.8719 52.296C61.3519 52.104 61.7252 52.008 61.9919 52.008C62.3012 52.008 62.5519 52.0773 62.7439 52.216C62.9465 52.344 63.0479 52.5467 63.0479 52.824C63.0479 52.9093 63.0265 52.9787 62.9839 53.032C63.1225 53.064 63.2345 53.144 63.3199 53.272C63.4052 53.4 63.4479 53.592 63.4479 53.848C63.4479 53.9547 63.4212 54.232 63.3679 54.68C63.3145 55.128 63.2559 55.672 63.1919 56.312C63.1385 56.952 63.1119 57.6187 63.1119 58.312C63.1119 58.4187 63.1279 58.5147 63.1599 58.6C63.1919 58.6747 63.2612 58.712 63.3679 58.712C63.7945 58.712 64.2265 58.6267 64.6639 58.456C65.1119 58.2747 65.5439 58.056 65.9599 57.8C66.3865 57.5333 66.7705 57.272 67.1119 57.016C67.4639 56.7493 67.7572 56.5307 67.9919 56.36C68.2372 56.1787 68.3972 56.088 68.4719 56.088C68.8345 56.088 69.0159 56.2693 69.0159 56.632C69.0159 56.728 68.8985 56.9307 68.6639 57.24C68.4399 57.5387 68.1305 57.8853 67.7359 58.28C67.3412 58.664 66.8985 59.048 66.4079 59.432C65.9279 59.8053 65.4265 60.1147 64.9039 60.36C64.3919 60.6053 63.8959 60.728 63.4159 60.728C62.8292 60.728 62.3812 60.5893 62.0719 60.312C61.7732 60.0347 61.5599 59.6613 61.4319 59.192C61.3145 58.712 61.2505 58.1733 61.2399 57.576C60.6959 58.3547 60.1305 59.048 59.5439 59.656C58.9679 60.2533 58.3972 60.728 57.8319 61.08C57.2665 61.432 56.7385 61.608 56.2479 61.608ZM61.9119 53.592C60.8665 54.0933 59.9279 54.6693 59.0959 55.32C58.2639 55.96 57.6025 56.632 57.1119 57.336C56.6319 58.04 56.3919 58.7173 56.3919 59.368C56.3919 59.5493 56.4772 59.64 56.6479 59.64C56.8505 59.64 57.1172 59.5227 57.4479 59.288C57.7892 59.0533 58.1572 58.744 58.5519 58.36C58.9465 57.9653 59.3412 57.528 59.7359 57.048C60.1305 56.5573 60.4985 56.056 60.8399 55.544C61.1812 55.032 61.4532 54.5413 61.6559 54.072C61.7305 53.9013 61.8159 53.7413 61.9119 53.592ZM68.4605 61.704C68.1938 61.704 67.9645 61.608 67.7725 61.416C67.5912 61.224 67.5005 60.9467 67.5005 60.584C67.5005 60.424 67.5218 60.1627 67.5645 59.8C67.6178 59.4267 67.6818 59 67.7565 58.52C67.8418 58.04 67.9218 57.5387 67.9965 57.016C68.0818 56.4933 68.1512 55.9973 68.2045 55.528C68.2685 55.0587 68.3112 54.6587 68.3325 54.328C68.3538 53.9227 68.4605 53.6347 68.6525 53.464C68.8445 53.2827 69.0738 53.192 69.3405 53.192C69.5538 53.192 69.7458 53.2453 69.9165 53.352C70.0978 53.448 70.2098 53.656 70.2525 53.976C70.3058 54.2853 70.3112 54.7333 70.2685 55.32C70.7378 54.4667 71.2125 53.704 71.6925 53.032C72.1832 52.36 72.6952 51.8267 73.2285 51.432C74.1138 50.76 74.9138 50.424 75.6285 50.424C76.0338 50.424 76.3005 50.5147 76.4285 50.696C76.5565 50.8773 76.6205 51.064 76.6205 51.256C76.6205 51.384 76.5885 51.5013 76.5245 51.608C76.4712 51.7147 76.3538 51.8267 76.1725 51.944C75.9912 52.0613 75.7138 52.216 75.3405 52.408C74.8392 52.664 74.3432 53 73.8525 53.416C73.3725 53.832 72.8925 54.3653 72.4125 55.016C71.9325 55.6667 71.4472 56.4667 70.9565 57.416C70.4658 58.3653 69.9592 59.496 69.4365 60.808C69.3405 61.1707 69.2018 61.4107 69.0205 61.528C68.8498 61.6453 68.6632 61.704 68.4605 61.704ZM84.8308 62.168C84.1054 62.168 83.4334 62.0133 82.8148 61.704C82.1961 61.4053 81.6308 61.0107 81.1188 60.52C80.6068 60.0187 80.1481 59.4747 79.7428 58.888C79.3481 58.2907 79.0121 57.704 78.7348 57.128C78.6068 57.7147 78.4894 58.216 78.3828 58.632C78.2868 59.048 78.2068 59.3947 78.1428 59.672C78.0894 59.8853 78.0308 60.0933 77.9668 60.296C77.9134 60.4987 77.8281 60.664 77.7108 60.792C77.5934 60.92 77.4281 60.984 77.2148 60.984C76.7561 60.984 76.4628 60.8293 76.3348 60.52C76.2068 60.2 76.1428 59.7947 76.1428 59.304C76.1428 58.8667 76.2121 58.2907 76.3508 57.576C76.5001 56.8613 76.6974 56.0613 76.9428 55.176C77.1881 54.2907 77.4708 53.3787 77.7908 52.44C78.1214 51.4907 78.4734 50.568 78.8468 49.672C79.2201 48.7653 79.5934 47.944 79.9668 47.208C80.2014 46.76 80.4094 46.4773 80.5908 46.36C80.7721 46.232 80.9854 46.168 81.2308 46.168C81.4761 46.168 81.6628 46.232 81.7908 46.36C81.9188 46.488 81.9828 46.6587 81.9828 46.872C81.9828 47.0107 81.9508 47.1493 81.8868 47.288C81.8228 47.4267 81.7534 47.5973 81.6788 47.8C81.4334 48.344 81.1774 48.9787 80.9108 49.704C80.6441 50.4187 80.3881 51.16 80.1428 51.928C79.8974 52.6853 79.6788 53.4053 79.4868 54.088C80.0094 53.7787 80.5908 53.48 81.2308 53.192C81.8708 52.8933 82.5161 52.6267 83.1667 52.392C83.8281 52.1467 84.4468 51.9547 85.0228 51.816C85.5988 51.6773 86.0841 51.608 86.4788 51.608C86.7881 51.608 87.0228 51.6987 87.1828 51.88C87.3428 52.0613 87.4228 52.2587 87.4228 52.472C87.4228 52.632 87.3748 52.792 87.2788 52.952C87.1828 53.112 86.9801 53.2507 86.6708 53.368C85.6468 53.7093 84.6281 54.056 83.6148 54.408C82.6121 54.76 81.4974 55.176 80.2708 55.656C80.5268 56.1573 80.8254 56.6747 81.1668 57.208C81.5081 57.7307 81.8761 58.2213 82.2708 58.68C82.6654 59.128 83.0708 59.496 83.4868 59.784C83.9028 60.0613 84.3134 60.2 84.7188 60.2C85.3161 60.2 85.8921 60.0827 86.4468 59.848C87.0014 59.6027 87.5134 59.3093 87.9828 58.968C88.4521 58.616 88.8628 58.2747 89.2148 57.944C89.5774 57.6133 89.8601 57.3573 90.0628 57.176C90.1801 57.0587 90.2921 56.9733 90.3988 56.92C90.5161 56.8667 90.6601 56.84 90.8308 56.84C91.0334 56.84 91.1881 56.904 91.2948 57.032C91.4121 57.1493 91.4654 57.304 91.4548 57.496C91.4441 57.6773 91.3534 57.8587 91.1828 58.04C91.0441 58.1893 90.8254 58.4293 90.5268 58.76C90.2388 59.08 89.8868 59.4373 89.4708 59.832C89.0654 60.216 88.6121 60.5893 88.1108 60.952C87.6201 61.304 87.0974 61.592 86.5428 61.816C85.9881 62.0507 85.4174 62.168 84.8308 62.168ZM94.0003 61.416C93.6696 61.416 93.3603 61.3147 93.0723 61.112C92.7843 60.9093 92.6402 60.5787 92.6402 60.12C92.6402 59.768 92.7309 59.4853 92.9123 59.272C93.0936 59.048 93.3016 58.8827 93.5363 58.776C93.7816 58.6693 93.9896 58.616 94.1603 58.616C94.3416 58.616 94.5443 58.6587 94.7682 58.744C95.0029 58.8187 95.2056 58.9627 95.3763 59.176C95.5469 59.3787 95.6323 59.672 95.6323 60.056C95.6323 60.4293 95.4723 60.7493 95.1523 61.016C94.8429 61.2827 94.4589 61.416 94.0003 61.416ZM112.54 60.632C112.476 61.208 112.134 61.496 111.516 61.496C111.196 61.496 110.94 61.4 110.748 61.208C110.566 61.016 110.476 60.7387 110.476 60.376C110.476 59.7573 110.502 59.096 110.556 58.392C110.62 57.6773 110.694 56.9573 110.78 56.232C110.876 55.5067 110.966 54.8133 111.052 54.152C110.668 54.7067 110.262 55.2773 109.836 55.864C109.409 56.4507 108.982 57.0213 108.556 57.576C108.129 58.1307 107.718 58.632 107.324 59.08C106.94 59.5173 106.588 59.8693 106.268 60.136C105.948 60.392 105.681 60.52 105.468 60.52C104.956 60.52 104.513 60.3333 104.14 59.96C103.766 59.576 103.58 59.0907 103.58 58.504C103.58 58.3013 103.601 58.0293 103.644 57.688C103.686 57.336 103.74 56.9627 103.804 56.568C103.868 56.1733 103.921 55.8 103.964 55.448C104.006 55.096 104.028 54.8187 104.028 54.616C104.028 54.616 104.028 54.6053 104.028 54.584C104.038 54.5307 104.028 54.504 103.996 54.504C103.953 54.504 103.836 54.648 103.644 54.936C103.452 55.2133 103.217 55.576 102.94 56.024C102.662 56.472 102.369 56.9413 102.06 57.432C101.761 57.9227 101.478 58.3813 101.212 58.808C100.956 59.2347 100.742 59.5653 100.572 59.8C100.337 60.1627 100.118 60.392 99.9158 60.488C99.7131 60.584 99.4784 60.632 99.2118 60.632C98.8384 60.632 98.5451 60.5093 98.3318 60.264C98.1291 60.008 98.0278 59.6507 98.0278 59.192C98.0278 59 98.0598 58.7013 98.1238 58.296C98.1984 57.8907 98.2891 57.4427 98.3958 56.952C98.5024 56.4507 98.6091 55.9653 98.7158 55.496C98.8331 55.016 98.9344 54.6107 99.0198 54.28C99.1158 53.8427 99.2491 53.5387 99.4198 53.368C99.6011 53.1867 99.8304 53.096 100.108 53.096C100.758 53.096 101.084 53.416 101.084 54.056C101.084 54.1733 101.046 54.3653 100.972 54.632C100.897 54.8987 100.806 55.208 100.7 55.56C100.593 55.912 100.481 56.2747 100.364 56.648C100.246 57.0107 100.15 57.352 100.076 57.672C100.332 57.224 100.609 56.744 100.908 56.232C101.206 55.72 101.51 55.2187 101.82 54.728C102.14 54.2373 102.454 53.7893 102.764 53.384C103.084 52.9787 103.398 52.6587 103.708 52.424C104.017 52.1787 104.31 52.056 104.588 52.056C104.865 52.056 105.137 52.1573 105.404 52.36C105.67 52.552 105.889 52.8027 106.06 53.112C106.241 53.4107 106.332 53.7307 106.332 54.072C106.332 54.392 106.289 54.776 106.204 55.224C106.118 55.672 106.022 56.1413 105.916 56.632C105.809 57.1227 105.734 57.6027 105.692 58.072C106.054 57.6667 106.438 57.208 106.844 56.696C107.249 56.1733 107.665 55.6347 108.092 55.08C108.518 54.5253 108.934 53.9867 109.34 53.464C109.756 52.9413 110.14 52.4667 110.492 52.04C110.854 51.6133 111.174 51.2773 111.452 51.032C111.729 50.776 111.942 50.648 112.092 50.648C112.529 50.648 112.87 50.7653 113.116 51C113.372 51.224 113.5 51.6187 113.5 52.184C113.5 52.536 113.473 52.9947 113.42 53.56C113.377 54.1253 113.313 54.7387 113.228 55.4C113.153 56.0507 113.068 56.712 112.972 57.384C112.886 58.0453 112.806 58.6587 112.732 59.224C112.657 59.7893 112.593 60.2587 112.54 60.632ZM118.073 61.544C117.412 61.544 116.878 61.3147 116.473 60.856C116.068 60.3867 115.865 59.6347 115.865 58.6C115.865 57.9387 115.94 57.2773 116.089 56.616C116.249 55.944 116.468 55.3093 116.745 54.712C117.033 54.104 117.364 53.5653 117.737 53.096C118.121 52.6267 118.542 52.2587 119.001 51.992C119.46 51.7147 119.934 51.576 120.425 51.576C121.257 51.576 121.908 51.8 122.377 52.248C122.846 52.696 123.081 53.2667 123.081 53.96C123.081 54.4933 122.932 54.9787 122.633 55.416C122.345 55.8427 121.95 56.2267 121.449 56.568C120.948 56.9093 120.388 57.2187 119.769 57.496C119.15 57.7733 118.516 58.024 117.865 58.248C117.812 58.632 117.785 58.9733 117.785 59.272C117.785 59.4533 117.886 59.544 118.089 59.544C118.569 59.544 119.081 59.4693 119.625 59.32C120.18 59.16 120.74 58.9573 121.305 58.712C121.87 58.456 122.414 58.1947 122.937 57.928C123.46 57.6507 123.934 57.3893 124.361 57.144C124.798 56.888 125.156 56.6853 125.433 56.536C125.721 56.376 125.908 56.296 125.993 56.296C126.228 56.296 126.398 56.3653 126.505 56.504C126.612 56.6427 126.665 56.792 126.665 56.952C126.665 57.0267 126.521 57.192 126.233 57.448C125.956 57.704 125.572 58.008 125.081 58.36C124.601 58.7013 124.057 59.0587 123.449 59.432C122.852 59.7947 122.228 60.1413 121.577 60.472C120.937 60.792 120.313 61.048 119.705 61.24C119.108 61.4427 118.564 61.544 118.073 61.544ZM118.137 56.824C118.574 56.568 119.006 56.3013 119.433 56.024C119.87 55.736 120.233 55.416 120.521 55.064C120.809 54.7013 120.953 54.28 120.953 53.8C120.953 53.6613 120.916 53.5707 120.841 53.528C120.766 53.4747 120.66 53.448 120.521 53.448C120.148 53.448 119.806 53.6133 119.497 53.944C119.198 54.2747 118.932 54.7013 118.697 55.224C118.473 55.736 118.286 56.2693 118.137 56.824Z" fill="black"/>
</svg>
