<svg width="211" height="239" viewBox="0 0 211 239" fill="none" xmlns="http://www.w3.org/2000/svg">
<path d="M156.375 158.803C126.888 178.597 95.8706 195.762 65.4709 214.024" stroke="white" stroke-width="2.93433" stroke-miterlimit="1.5" stroke-linecap="round" stroke-linejoin="round"/>
<path d="M178.384 145.63C176.189 146.678 174.017 147.762 171.867 148.901" stroke="white" stroke-width="2.93433" stroke-miterlimit="1.5" stroke-linecap="round" stroke-linejoin="round"/>
<path d="M40.4577 196.453C82.484 176.469 122.448 150.481 161.699 125.589" stroke="white" stroke-width="2.93433" stroke-miterlimit="1.5" stroke-linecap="round" stroke-linejoin="round"/>
<path d="M194.634 102.098C190.865 104.734 186.989 107.1 183.099 109.538" stroke="white" stroke-width="2.93433" stroke-miterlimit="1.5" stroke-linecap="round" stroke-linejoin="round"/>
<path d="M125.701 118.972C115.794 124.399 106.667 131.156 97.0154 136.998C79.692 147.483 61.7042 156.635 43.8398 166.13" stroke="white" stroke-width="2.93433" stroke-miterlimit="1.5" stroke-linecap="round" stroke-linejoin="round"/>
<path d="M140.46 110.116C145.412 106.942 150.305 103.638 155.085 100.205" stroke="white" stroke-width="2.93433" stroke-miterlimit="1.5" stroke-linecap="round" stroke-linejoin="round"/>
<path d="M70.3717 123.964C84.0253 115.519 98.0142 107.659 111.708 99.2994" stroke="white" stroke-width="2.93433" stroke-miterlimit="1.5" stroke-linecap="round" stroke-linejoin="round"/>
<path d="M128.638 89.2657C132.502 86.6914 136.395 84.142 140.209 81.4933" stroke="white" stroke-width="2.93433" stroke-miterlimit="1.5" stroke-linecap="round" stroke-linejoin="round"/>
<path d="M18.8706 125.85C43.5666 113.551 66.8589 98.7207 91.3871 86.2096" stroke="white" stroke-width="2.93433" stroke-miterlimit="1.5" stroke-linecap="round" stroke-linejoin="round"/>
<path d="M102.93 79.5946C104.849 78.5216 106.793 77.4771 108.673 76.3356" stroke="white" stroke-width="2.93433" stroke-miterlimit="1.5" stroke-linecap="round" stroke-linejoin="round"/>
<path d="M120.381 39.7552C98.897 56.5069 74.251 71.5156 50.191 84.2782" stroke="white" stroke-width="2.93433" stroke-miterlimit="1.5" stroke-linecap="round" stroke-linejoin="round"/>
<path d="M140.835 23.5881C138.817 25.0939 136.752 26.5116 134.637 27.8754" stroke="white" stroke-width="2.93433" stroke-miterlimit="1.5" stroke-linecap="round" stroke-linejoin="round"/>
</svg>
