<svg width="79" height="75" viewBox="0 0 79 75" fill="none" xmlns="http://www.w3.org/2000/svg">
<path d="M54.6961 70.2712C54.5596 70.5181 54.3878 70.7439 54.1861 70.9412C53.9771 71.1456 53.7287 71.3055 53.4561 71.4112C53.2128 71.5044 52.9563 71.5584 52.6961 71.5712C52.4161 71.5712 52.1361 71.5712 51.8661 71.5712C51.4361 71.4412 51.0161 71.3212 50.5861 71.1712L49.2861 70.5412C48.8661 70.3612 48.4061 70.0512 48.0761 69.8712C47.7461 69.6912 47.5961 69.5812 47.3661 69.4212C46.7561 69.0312 46.1161 68.7112 45.5461 68.2712C44.9761 67.8312 44.5461 67.5012 44.0761 67.0812L42.7261 65.7612C42.2961 65.2912 41.8561 64.8412 41.4461 64.3712C41.0361 63.9012 40.6061 63.4412 40.2161 62.9512C39.4961 62.1112 38.7861 61.2612 38.1461 60.3512C37.2546 59.1877 36.6917 57.8064 36.5161 56.3512C36.4561 55.9112 36.7661 55.9112 37.2161 56.1412C37.7826 56.4626 38.2844 56.8865 38.6961 57.3912C40.0867 59.5936 41.799 61.5755 43.7761 63.2712C44.391 63.8193 45.0613 64.3019 45.7761 64.7112C46.1361 64.9212 46.4761 65.1512 46.8261 65.3712L47.8261 66.0212C48.4161 66.3812 49.0961 66.7912 49.6061 67.0812C49.8658 67.2579 50.1364 67.4182 50.4161 67.5612C50.5844 67.6675 50.7709 67.7421 50.9661 67.7812C51.1037 67.8231 51.2507 67.7539 51.3061 67.6212C51.3513 67.502 51.3815 67.3778 51.3961 67.2512C51.405 66.9732 51.3849 66.695 51.3361 66.4212C51.3361 66.1512 51.0561 65.1212 50.8361 64.3112C50.6161 63.5012 50.3461 62.6312 50.0661 61.8012C49.5307 60.5201 49.0634 59.2116 48.6661 57.8812C48.5672 57.5771 48.4903 57.2663 48.4361 56.9512C48.3418 56.496 48.409 56.0222 48.6261 55.6112C48.8035 55.3091 49.1022 55.0978 49.4461 55.0312C49.6126 54.975 49.783 54.9315 49.9561 54.9012C50.5261 54.9012 50.9561 55.2712 51.3761 55.9012C51.9061 56.9012 52.3761 57.9012 52.9561 58.9912C53.5361 60.0812 53.7561 61.2912 54.1361 62.5112L54.5161 63.9012L54.6961 64.6212L54.9161 65.6212C55.3361 67.4512 55.4061 69.2112 54.7661 70.3112L54.6961 70.2712Z" fill="#231F20" fill-opacity="0.4"/>
<path d="M12.246 26.3512C13.5828 28.0701 15.0151 29.7127 16.536 31.2712L18.876 33.6412L19.716 34.4812C20.0645 34.8154 20.3702 35.1916 20.626 35.6012C20.8623 35.9345 20.9493 36.3512 20.866 36.7512L20.316 37.8512L19.446 38.7312L18.896 39.3212C18.586 39.6412 18.286 39.9712 17.986 40.3212C16.716 41.7512 15.586 43.3212 14.456 44.8612C12.4522 47.5948 10.6985 50.5032 9.216 53.5512C8.846 54.3112 8.506 55.0812 8.216 55.8612C7.926 56.6412 7.756 57.0412 7.646 57.4112C7.50183 57.7798 7.457 58.1798 7.516 58.5712C7.606 58.8012 7.856 58.7012 7.996 58.5712L8.466 58.2412L11.466 56.1212C12.756 55.2412 14.066 54.3912 15.396 53.5912C17.1187 52.5515 18.9132 51.6359 20.766 50.8512L22.196 50.3112C22.676 50.1412 23.196 50.0112 23.656 49.8712C24.15 49.7208 24.6604 49.6301 25.176 49.6012C25.6866 49.5358 26.2012 49.5057 26.716 49.5112C27.996 49.5112 27.806 49.7712 26.866 50.3612C26.636 50.5212 26.356 50.6812 26.046 50.8912L25.046 51.6212C24.2137 52.1491 23.3449 52.617 22.446 53.0212C20.6974 53.8244 19.0008 54.7362 17.366 55.7512C15.686 56.7645 14.036 57.8212 12.416 58.9212C11.516 59.5312 11.116 59.8212 9.216 61.2312C8.826 61.5112 8.446 61.7212 8.066 61.9712L7.776 62.1612C7.70404 62.2215 7.61807 62.2628 7.526 62.2812L7.066 62.3912C6.80916 62.4485 6.54284 62.4485 6.286 62.3912C6.01226 62.3656 5.74674 62.284 5.506 62.1512C4.98415 61.8201 4.62227 61.2882 4.506 60.6812C4.43154 60.3534 4.40128 60.017 4.416 59.6812C4.416 59.4812 4.416 59.3112 4.416 59.1012L4.516 58.4812C4.67126 57.6409 4.89535 56.8148 5.186 56.0112C5.326 55.5712 5.406 55.4212 5.506 55.1512C5.606 54.8812 5.716 54.6612 5.816 54.4212C7.86729 49.7766 10.4477 45.3842 13.506 41.3312C14.186 40.4712 14.876 39.6212 15.596 38.8012C15.956 38.3912 16.316 37.9712 16.686 37.5812L17.226 37.0012L17.436 36.8012L17.616 36.6312L17.696 36.5512C17.696 36.5512 17.696 36.4812 17.696 36.4512C17.696 36.4212 17.486 36.2112 17.376 36.0912L15.816 34.5412C14.636 33.3712 13.466 32.1612 12.346 30.9112C10.0129 28.3867 7.99784 25.5858 6.346 22.5712C5.71424 21.4028 5.18557 20.1815 4.766 18.9212C4.656 18.6012 4.576 18.2712 4.486 17.9212C4.37987 17.4926 4.29642 17.0586 4.236 16.6212C4.17651 16.1837 4.14644 15.7427 4.146 15.3012C4.15572 14.8911 4.20258 14.4828 4.286 14.0812C4.35633 13.3521 4.71665 12.6819 5.286 12.2212C5.99956 12.2334 6.69428 12.4522 7.286 12.8512C8.006 13.2812 8.746 13.8512 9.476 14.3712L11.006 15.4712C14.089 17.6742 17.4264 19.4974 20.946 20.9012C21.706 21.1912 22.456 21.4212 23.226 21.6612C24.646 22.1012 25.586 22.2812 26.226 22.5312C26.7446 22.7158 27.2158 23.0129 27.606 23.4012C27.7706 23.532 27.9244 23.6758 28.066 23.8312C28.236 24.0612 28.006 24.3012 27.386 24.5512C26.4626 24.8892 25.4719 25.0023 24.496 24.8812C22.6185 24.6908 20.7714 24.2711 18.996 23.6312C17.2045 23.0032 15.474 22.2133 13.826 21.2712C12.206 20.3312 10.636 19.2712 9.116 18.2712L7.986 17.4712L7.476 17.1012V17.1012V17.1012V17.1012V17.2312C7.546 17.5112 7.616 17.7912 7.706 18.0812C7.88666 18.6616 8.09694 19.2323 8.336 19.7912C9.38621 22.1353 10.7303 24.3363 12.336 26.3412L12.246 26.3512Z" fill="#231F20" fill-opacity="0.4"/>
<path d="M52.566 5.9312C52.6039 5.86487 52.6341 5.79441 52.656 5.7212C52.6881 5.66233 52.7084 5.59781 52.716 5.5312C52.7464 5.47861 52.7464 5.4138 52.716 5.3612C52.6347 5.3132 52.5391 5.29549 52.446 5.3112C52.3207 5.32285 52.1969 5.34629 52.076 5.3812H51.976L51.546 5.5912L50.626 6.0712C49.626 6.6212 48.626 7.3312 47.626 7.9512C44.0461 10.154 40.696 12.7101 37.626 15.5812C36.2787 16.8672 35.0473 18.2692 33.946 19.7712C32.496 21.6412 31.276 23.6412 29.946 25.5612C29.526 26.1612 28.946 25.8212 28.576 24.9212C28.125 23.7044 28.1937 22.3558 28.766 21.1912C29.3641 20.0157 30.0319 18.877 30.766 17.7812C31.5204 16.7292 32.3421 15.7271 33.226 14.7812C34.9539 12.8561 36.8626 11.1014 38.926 9.5412C41.396 7.6812 43.736 5.4912 46.366 3.7112C47.096 3.2212 47.836 2.7112 48.596 2.3012C48.976 2.0812 49.356 1.8612 49.756 1.6512C50.346 1.3312 50.956 1.0012 51.566 0.741203C52.637 0.233498 53.8109 -0.0197614 54.996 0.00120317C55.5255 0.0155005 56.0367 0.197587 56.456 0.521203C56.6519 0.694925 56.7883 0.925785 56.846 1.1812L57.116 1.9012C57.1834 2.0579 57.2304 2.22257 57.256 2.3912V3.3912C57.3001 3.73981 57.3001 4.09259 57.256 4.4412C57.126 5.1512 57.066 5.8612 56.876 6.5712C56.686 7.2812 56.536 7.7012 56.366 8.2212L55.846 9.6412C54.696 12.6412 53.296 15.4812 52.296 18.3912C51.5658 20.5785 51.1188 22.8503 50.966 25.1512C50.966 25.6312 50.966 26.1512 50.966 26.5812C50.916 28.3212 50.776 28.7812 49.556 29.3412C49.286 29.4612 49.016 29.6212 48.746 29.7212C47.836 30.0612 46.936 29.2912 46.646 27.6012C46.3437 25.172 46.5307 22.7069 47.196 20.3512C47.7963 18.0817 48.5617 15.8591 49.486 13.7012C50.1527 12.1679 50.796 10.6379 51.416 9.1112C51.746 8.3512 51.956 7.6212 52.226 6.8812L52.376 6.3512L52.446 6.0812V6.0812V6.0112L52.566 5.9312Z" fill="#231F20" fill-opacity="0.4"/>
<path d="M0.62603 14.9612C0.420599 14.0148 0.313364 13.0496 0.30603 12.0812C0.324201 11.6826 0.364261 11.2854 0.42603 10.8912C0.51603 10.5412 0.59603 10.1912 0.69603 9.8412C0.931362 9.31467 1.27163 8.8417 1.69603 8.4512C1.93384 8.24071 2.21835 8.08988 2.52603 8.0112C2.7676 7.94599 3.01594 7.90908 3.26603 7.9012C3.81351 7.88956 4.35962 7.96035 4.88603 8.1112C5.60463 8.34067 6.29553 8.64922 6.94603 9.0312L7.60603 9.4612L8.26603 9.9412L9.59603 10.9412L10.906 11.9412C11.116 12.1112 11.336 12.2712 11.546 12.4512L11.906 12.7512C15.0539 15.5611 18.4741 18.0501 22.116 20.1812C23.7287 21.0521 25.4413 21.7237 27.216 22.1812C29.4314 22.8166 31.7071 23.2187 34.006 23.3812C34.736 23.4312 34.746 23.9712 34.166 24.6612C33.2676 25.6182 32.0364 26.1944 30.726 26.2712C29.3549 26.3185 27.9823 26.2381 26.626 26.0312C25.2948 25.7625 23.9922 25.3674 22.736 24.8512C20.2847 23.8535 17.9643 22.5607 15.826 21.0012C14.566 20.0812 13.246 19.2212 11.926 18.3612L9.92603 17.0612L8.92603 16.3912L8.67603 16.2012L8.52603 16.0812C8.16603 15.7612 7.74603 15.3812 7.25603 14.9912C7.00795 14.7709 6.7238 14.595 6.41603 14.4712C6.21603 14.4112 6.15603 14.5812 6.11603 14.6912C6.06349 14.8145 6.03629 14.9471 6.03603 15.0812C6.01124 15.2771 6.01124 15.4753 6.03603 15.6712C6.08385 16.1212 6.17084 16.5663 6.29603 17.0012C6.36603 17.2312 6.44603 17.4712 6.52603 17.7212L6.76603 18.3212L7.05603 19.0112C8.25713 21.8313 9.75916 24.5135 11.536 27.0112C12.9482 28.8449 14.5881 30.4915 16.416 31.9112L17.626 32.7712C18.866 34.0612 19.066 34.6612 18.736 35.9012C18.656 36.1912 18.616 36.4812 18.526 36.7412C18.3639 37.1688 17.9795 37.4724 17.526 37.5312C16.8426 37.611 16.1504 37.5003 15.526 37.2112C14.3551 36.7669 13.2769 36.1091 12.346 35.2712C11.419 34.4957 10.5501 33.6535 9.74603 32.7512C8.15353 30.9363 6.73716 28.9741 5.51603 26.8912C4.60057 25.3455 3.7726 23.7497 3.03603 22.1112C2.84603 21.7012 2.66603 21.2912 2.48603 20.8712L2.22603 20.2712L1.91603 19.4912C1.33591 18.0134 0.861381 16.4962 0.49603 14.9512L0.62603 14.9612Z" fill="#231F20" fill-opacity="0.4"/>
<path d="M49.1161 60.7512C47.8561 57.7512 46.6661 54.8412 45.5061 51.5712C45.2615 50.8931 45.0545 50.2021 44.8861 49.5012C44.7037 48.8489 44.5963 48.1779 44.5661 47.5012C44.5305 46.9001 44.6016 46.2975 44.7761 45.7212C44.8532 45.4483 44.9712 45.1887 45.1261 44.9512C45.1261 44.9512 45.1261 44.8212 45.2661 44.7912C45.3 44.7219 45.3438 44.6579 45.3961 44.6012C45.4894 44.4973 45.5933 44.4034 45.7061 44.3212C46.7529 43.6472 47.9972 43.3476 49.2361 43.4712C49.9261 43.4712 50.6861 43.4712 51.3261 43.5512L52.6661 43.6412C54.9661 43.8012 57.2161 43.7812 59.4361 43.7812C61.957 43.8223 64.4749 43.591 66.9461 43.0912C67.5361 42.9612 68.1261 42.8012 68.6961 42.6212L69.5361 42.3212L70.1361 42.0712C70.6334 41.8622 71.0903 41.5678 71.4861 41.2012C71.7215 41.0034 71.921 40.7666 72.0761 40.5012C72.0761 40.3412 71.8861 40.3012 71.7661 40.2512C71.6363 40.2028 71.5024 40.1659 71.3661 40.1412C71.0961 40.0712 70.8061 40.0212 70.5061 39.9712L69.4461 39.8012C65.8361 39.2912 62.1461 38.8012 58.5461 37.9212C56.2153 37.3232 53.9506 36.4923 51.7861 35.4412C49.5861 34.3765 47.6131 32.896 45.9761 31.0812C44.9761 29.8912 45.5861 29.7212 46.8561 30.0812C48.1261 30.4412 50.2161 31.1612 52.4961 32.0812C54.4525 32.8605 56.4782 33.4531 58.5461 33.8512C60.6361 34.2812 62.7361 34.7512 64.8961 35.0612C65.9761 35.2312 67.0561 35.3712 68.1561 35.5212L69.8161 35.7312L71.1661 35.8912C71.7061 35.8912 72.2461 36.0012 72.7761 36.0712C73.7637 36.1737 74.7385 36.3747 75.6861 36.6712C76.3313 36.8917 76.9072 37.2779 77.3561 37.7912C77.546 37.9892 77.7045 38.2152 77.8261 38.4612C77.9932 38.7662 78.0597 39.1162 78.0161 39.4612C77.9671 40.1541 77.7246 40.8193 77.3161 41.3812C76.9361 41.9012 76.4861 42.3812 76.0361 42.9112C75.2093 43.7318 74.2898 44.4533 73.2961 45.0612L72.5061 45.5212C72.3738 45.6024 72.2369 45.6759 72.0961 45.7412L71.7361 45.9212C71.3661 46.0912 70.9861 46.2512 70.6061 46.4012C69.1208 46.9787 67.5884 47.427 66.0261 47.7412C63.0126 48.3305 59.9465 48.6086 56.8761 48.5712C55.2261 48.5712 53.5961 48.4912 51.9861 48.4212C51.5161 48.4212 51.3361 48.4212 51.2161 48.4212H50.7661H50.2961C50.1561 48.4212 49.9361 48.4212 49.8661 48.5612C49.7977 48.8573 49.7977 49.1651 49.8661 49.4612L49.9761 49.9312L50.0361 50.1712L50.1961 50.6912C50.6661 52.1512 51.1961 53.6212 51.8361 55.0812C53.3361 58.6812 54.9761 62.2612 56.5861 65.8812C57.3361 67.6412 58.4961 69.9812 58.6661 71.6212C58.7001 72.0038 58.7001 72.3886 58.6661 72.7712C58.6746 73.1471 58.5261 73.5095 58.2561 73.7712C57.5155 74.206 56.6638 74.4146 55.8061 74.3712C53.802 74.2376 51.8474 73.6894 50.0661 72.7612C48.6441 72.0764 47.2708 71.2945 45.9561 70.4212C41.8327 67.8557 38.2657 64.4893 35.4661 60.5212C34.8406 59.6099 34.2889 58.6502 33.8161 57.6512C33.2163 56.2784 32.9327 54.7883 32.9861 53.2912C33.0028 52.4915 33.3681 51.739 33.9861 51.2312C34.2147 51.0017 34.4698 50.8003 34.7461 50.6312C35.6361 50.2312 36.4161 51.6312 37.5161 53.8312C37.7561 54.2312 37.9561 54.6312 38.1961 55.0112L38.5661 55.5912C38.6661 55.7912 38.7861 55.9812 38.9061 56.1712C39.3617 56.9563 39.8625 57.7142 40.4061 58.4412C41.5286 59.9407 42.7837 61.3363 44.1561 62.6112C45.5547 63.9297 47.0598 65.1304 48.6561 66.2012C49.4561 66.7212 50.2761 67.2012 51.1061 67.6912C51.3161 67.8112 51.5261 67.9112 51.7361 68.0212L52.0361 68.1712V68.1712C52.0361 68.1712 52.0961 68.2412 52.1161 68.1712V68.1712V68.1712C52.1161 68.1712 52.1161 68.1712 52.1161 68.0812L51.8861 67.5412L50.8861 65.3512L48.8861 60.9312L49.1161 60.7512Z" fill="#231F20" fill-opacity="0.4"/>
<path d="M6.33604 57.8512C6.04415 58.1755 5.8228 58.5569 5.68604 58.9712C5.68604 59.0712 5.62604 59.2412 5.68604 59.2912C5.74604 59.3412 5.90604 59.2912 6.05604 59.1912C6.15643 59.1301 6.25326 59.0634 6.34604 58.9912C6.48295 58.86 6.63784 58.7489 6.80604 58.6612C6.73604 58.7612 8.12604 57.8512 9.02604 57.2912C9.92604 56.7312 11.026 56.0612 12.026 55.4912C14.026 54.3112 16.136 53.2812 18.226 52.2412C20.116 51.3712 21.976 50.4212 23.926 49.6312C24.556 49.3812 25.176 49.1312 25.826 48.9312C26.476 48.7312 27.146 48.5612 27.826 48.3912C28.5111 48.2689 29.202 48.1821 29.896 48.1312C30.0724 48.1162 30.2497 48.1162 30.426 48.1312L30.966 48.2612L32.026 48.5512C32.886 48.8312 32.696 49.1612 32.026 49.8412C31.696 50.1912 31.246 50.6512 30.786 51.1512C30.3352 51.6209 29.7701 51.9655 29.146 52.1512C28.036 52.5512 26.936 52.9812 25.816 53.4912C24.696 54.0012 23.556 54.4912 22.406 54.9312C20.126 55.9312 17.836 57.1312 15.496 58.2812C14.806 58.6412 14.106 59.0012 13.416 59.4112C12.726 59.8212 12.076 60.2612 11.416 60.7012L9.31604 62.1712L6.00604 64.5812L4.88604 65.3912L4.48604 65.6412C4.37604 65.6412 4.26604 65.7212 4.15604 65.7612L3.50604 66.0112C3.30696 66.0959 3.10331 66.1693 2.89604 66.2312L2.40604 66.3112C2.11731 66.377 1.82217 66.4106 1.52604 66.4112C1.33449 66.4066 1.14647 66.3588 0.97604 66.2712C0.768008 66.1563 0.59517 65.9869 0.47604 65.7812C0.105422 65.0457 -0.0538199 64.2218 0.0160402 63.4012C0.0871642 62.3364 0.29211 61.2848 0.62604 60.2712C0.87604 59.5112 1.15604 58.7312 1.48604 57.9612L2.43604 55.7712C2.92604 54.7712 3.43604 53.7712 3.96604 52.7712C5.58997 49.7837 7.37942 46.8892 9.32604 44.1012L11.476 40.8212C12.1617 39.7027 12.92 38.6304 13.746 37.6112C14.116 37.1712 14.456 36.7112 14.866 36.2912C15.3723 35.6907 16.013 35.218 16.736 34.9112C17.2636 34.79 17.8167 34.8498 18.306 35.0812C18.5395 35.157 18.7669 35.2506 18.986 35.3612C19.306 35.5512 19.406 35.9112 19.396 36.4212C19.3906 37.0732 19.2111 37.7119 18.876 38.2712L17.166 41.2112C16.606 42.2112 15.916 43.0812 15.286 44.0212C14.006 45.8912 12.716 47.7912 11.466 49.7212C10.4994 51.1279 9.56271 52.5612 8.65604 54.0212C8.20604 54.7512 7.77604 55.4912 7.35604 56.2312L6.74604 57.3612L6.47604 57.8712V57.8712L6.33604 57.8512Z" fill="#231F20" fill-opacity="0.4"/>
</svg>
